<svg width="100" height="100" viewBox="0 0 100 100" fill="none" xmlns="http://www.w3.org/2000/svg">
<g clip-path="url(#clip0)">
<path d="M83.5674 83.9322C87.9684 83.4568 91.4062 79.7205 91.4062 75.1953C91.4062 71.376 88.9568 68.1195 85.5469 66.9102V58.7988C85.5469 57.1809 84.2352 55.8691 82.6172 55.8691H53.0273V53.125H55.9186C57.5365 53.125 58.8482 51.8133 58.8482 50.1953V45.2572C59.8594 44.7729 60.8273 44.2066 61.7469 43.5615L66.0426 46.0416C67.4424 46.8502 69.2357 46.3705 70.0445 44.9693L75.9631 34.7182C76.7721 33.3168 76.292 31.525 74.8908 30.7162L70.46 28.158C70.5312 27.1176 70.5244 26.0605 70.4309 24.9838L74.8908 22.4088C76.292 21.5998 76.7721 19.8082 75.9631 18.4068L70.0445 8.15566C69.2348 6.75273 67.4406 6.27578 66.0426 7.0834L61.4373 9.74219C60.6104 9.18457 59.7461 8.68906 58.8482 8.25879V2.92969C58.8482 1.31172 57.5365 0 55.9186 0H44.0814C42.4635 0 41.1518 1.31172 41.1518 2.92969V8.25879C40.2541 8.68906 39.3896 9.18437 38.5627 9.74219L33.9574 7.0834C32.557 6.275 30.7643 6.75469 29.9555 8.15566L24.0369 18.4068C23.2279 19.8082 23.708 21.6 25.1092 22.4088L29.5691 24.9838C29.4787 26.0248 29.4664 27.0818 29.54 28.158L25.1092 30.7162C23.708 31.5252 23.2279 33.3168 24.0369 34.7182L29.9555 44.9693C30.7652 46.3723 32.5594 46.849 33.9574 46.0416L38.2531 43.5615C39.1727 44.2066 40.1406 44.7727 41.1518 45.2572V50.1953C41.1518 51.8133 42.4635 53.125 44.0814 53.125H47.168V55.8691H17.5781C15.9602 55.8691 14.6484 57.1809 14.6484 58.7988V66.9102C11.2385 68.1195 8.78906 71.376 8.78906 75.1953C8.78906 79.6953 12.1891 83.4141 16.5547 83.9229C9.71602 84.4 4.29688 90.1123 4.29688 97.0703C4.29688 98.6883 5.60859 100 7.22656 100H27.7344C29.3523 100 30.6641 98.6883 30.6641 97.0703C30.6641 90.1539 25.3094 84.4686 18.5283 83.9322C22.9293 83.4568 26.3672 79.7205 26.3672 75.1953C26.3672 71.376 23.9178 68.1195 20.5078 66.9102V61.7285H47.168V66.9102C43.758 68.1195 41.3086 71.376 41.3086 75.1953C41.3086 79.6953 44.7086 83.4141 49.0742 83.9229C42.2355 84.4 36.8164 90.1123 36.8164 97.0703C36.8164 98.6883 38.1281 100 39.7461 100H60.2539C61.8719 100 63.1836 98.6883 63.1836 97.0703C63.1836 90.1539 57.8289 84.4686 51.0479 83.9322C55.4488 83.4568 58.8867 79.7205 58.8867 75.1953C58.8867 71.376 56.4373 68.1195 53.0273 66.9102V61.7285H79.6875V66.9102C76.2775 68.1195 73.8281 71.376 73.8281 75.1953C73.8281 79.6953 77.2281 83.4141 81.5938 83.9229C74.7551 84.4 69.3359 90.1123 69.3359 97.0703C69.3359 98.6883 70.6477 100 72.2656 100H92.7734C94.3914 100 95.7031 98.6883 95.7031 97.0703C95.7031 90.1539 90.3484 84.4686 83.5674 83.9322ZM41.2109 26.7578C41.2109 21.9115 45.1537 17.9688 50 17.9688C54.8463 17.9688 58.7891 21.9115 58.7891 26.7578C58.7891 31.6041 54.8463 35.5469 50 35.5469C45.1537 35.5469 41.2109 31.6041 41.2109 26.7578Z" fill="white"/>
<path d="M50 29.6875C51.618 29.6875 52.9297 28.3758 52.9297 26.7578C52.9297 25.1398 51.618 23.8281 50 23.8281C48.382 23.8281 47.0703 25.1398 47.0703 26.7578C47.0703 28.3758 48.382 29.6875 50 29.6875Z" fill="white"/>
</g>
<defs>
<clipPath id="clip0">
<rect width="100" height="100" fill="white"/>
</clipPath>
</defs>
</svg>
