<svg width="100" height="100" viewBox="0 0 100 100" fill="none" xmlns="http://www.w3.org/2000/svg">
<path d="M97.072 46.2499L91.433 44.8402C91.1833 42.8143 90.7873 40.8336 90.2579 38.9082L94.9237 35.4511C96.3489 34.3952 96.8726 32.5046 96.1938 30.866C95.5149 29.2272 93.808 28.2608 92.0535 28.5217L86.3074 29.3769C85.3066 27.6185 84.1819 25.94 82.9447 24.3531L85.9364 19.3668C86.8491 17.8459 86.6093 15.899 85.3551 14.6447C84.1008 13.3903 82.1539 13.1507 80.633 14.0634L75.6467 17.0551C74.0598 15.8181 72.3813 14.6934 70.6229 13.6924L71.4781 7.94628C71.739 6.19175 70.7726 4.48491 69.134 3.80604C67.4952 3.12716 65.6048 3.65091 64.5489 5.07606L61.0918 9.74185C59.1662 9.21247 57.1857 8.8167 55.1598 8.5668L53.7501 2.92797C53.3199 1.20724 51.7738 0 50 0C48.2262 0 46.6801 1.20724 46.2499 2.92797L44.8402 8.5668C42.8141 8.8165 40.8336 9.21247 38.9082 9.74185L35.4511 5.07606C34.3952 3.65091 32.5046 3.12736 30.866 3.80604C29.2272 4.48491 28.2608 6.19175 28.5217 7.94628L29.3769 13.6924C27.6185 14.6934 25.94 15.8179 24.3533 17.0551L19.3668 14.0634C17.8459 13.1507 15.899 13.3905 14.6447 14.6447C13.3903 15.899 13.1507 17.8459 14.0634 19.3668L17.0551 24.3531C15.8181 25.9398 14.6934 27.6185 13.6924 29.3769L7.94608 28.5217C6.19155 28.2606 4.48471 29.2272 3.80584 30.866C3.12696 32.5048 3.6507 34.3952 5.07585 35.4511L9.74165 38.9082C9.21227 40.8338 8.8165 42.8143 8.5666 44.8402L2.92757 46.2499C1.20724 46.6801 0 48.2262 0 50C0 51.7738 1.20724 53.3199 2.92797 53.7501L8.567 55.1598C8.8167 57.1857 9.21268 59.1664 9.74205 61.0918L5.07626 64.5489C3.65111 65.6048 3.12736 67.4954 3.80624 69.134C4.48511 70.7728 6.19195 71.7392 7.94648 71.4783L13.6928 70.6231C14.6936 72.3815 15.8183 74.06 17.0555 75.6467L14.0638 80.633C13.1511 82.1539 13.3909 84.1008 14.6451 85.3551C15.8994 86.6095 17.8463 86.8491 19.3672 85.9364L24.3535 82.9447C25.9404 84.1817 27.6189 85.3064 29.3771 86.3074L28.5219 92.0537C28.261 93.8082 29.2274 95.5151 30.8662 96.194C32.505 96.8728 34.3954 96.3491 35.4513 94.9239L38.9084 90.2581C40.834 90.7875 42.8145 91.1833 44.8404 91.4332L46.2501 97.0722C46.6801 98.7928 48.2262 100 50 100C51.7738 100 53.3199 98.7928 53.7501 97.072L55.1598 91.433C57.1859 91.1833 59.1664 90.7873 61.0918 90.2579L64.5489 94.9237C65.6048 96.3489 67.4954 96.8724 69.134 96.1938C70.7728 95.5149 71.7392 93.808 71.4783 92.0535L70.6231 86.3072C72.3815 85.3064 74.06 84.1817 75.6469 82.9445L80.6332 85.9362C82.1541 86.8489 84.101 86.609 85.3553 85.3549C86.6097 84.1006 86.8493 82.1537 85.9366 80.6328L82.9449 75.6465C84.1819 74.0598 85.3066 72.3811 86.3076 70.6229L92.0537 71.4781C93.8082 71.7392 95.5151 70.7726 96.194 69.134C96.8728 67.4952 96.3491 65.6048 94.9239 64.5489L90.2581 61.0918C90.7875 59.1662 91.1833 57.1857 91.4332 55.1598L97.0722 53.7501C98.7928 53.3199 100 51.7738 100 50C100 48.2262 98.7928 46.6801 97.072 46.2499ZM50 79.6781C33.6093 79.6781 20.3219 66.3907 20.3219 50C20.3219 33.6093 33.6093 20.3219 50 20.3219C66.3907 20.3219 79.6781 33.6093 79.6781 50C79.6781 66.3907 66.3907 79.6781 50 79.6781Z" fill="white"/>
<path d="M54.0343 14.511C71.8593 16.5151 85.7144 31.6398 85.7144 50C85.7144 68.3601 71.8593 83.4849 54.0343 85.4889C54.0343 85.4889 76.7607 68.1348 76.7607 50C76.7607 31.8652 54.0343 14.511 54.0343 14.511Z" fill="white"/>
<path d="M54.0343 14.5111C68.5735 16.8793 79.7787 31.8652 79.7787 50C79.7787 68.1348 68.5735 83.1207 54.0343 85.4889C52.7103 85.6378 51.3642 85.7143 50.0001 85.7143C30.2757 85.7143 14.2858 69.7243 14.2858 50C14.2858 30.2756 30.2757 14.2857 50.0001 14.2857C51.3642 14.2857 52.7103 14.3622 54.0343 14.5111ZM69.7264 46.9819C71.7385 46.9819 73.2093 45.0443 72.6258 43.1187C70.3401 35.5956 64.4045 29.66 56.8813 27.3742C54.9558 26.7907 53.0182 28.2616 53.0182 30.2736V38.3078C57.2596 39.4004 60.5996 42.7404 61.6922 46.9819H69.7264ZM72.6258 56.8813C73.2093 54.9557 71.7385 53.0181 69.7264 53.0181H61.6922C60.5996 57.2595 57.2596 60.5996 53.0182 61.6921V69.7264C53.0182 71.7384 54.9558 73.2093 56.8813 72.6258C64.4045 70.34 70.3401 64.4044 72.6258 56.8813ZM56.0363 50C56.0363 46.666 53.3341 43.9638 50.0001 43.9638C46.666 43.9638 43.9638 46.666 43.9638 50C43.9638 53.334 46.666 56.0362 50.0001 56.0362C53.3341 56.0362 56.0363 53.334 56.0363 50ZM46.9819 69.7264V61.6921C42.7405 60.5996 39.4005 57.2595 38.3079 53.0181H30.2737C28.2616 53.0181 26.7908 54.9557 27.3743 56.8813C29.66 64.4044 35.5956 70.34 43.1188 72.6258C45.0443 73.2093 46.9819 71.7384 46.9819 69.7264ZM46.9819 38.3078V30.2736C46.9819 28.2616 45.0443 26.7907 43.1188 27.3742C35.5956 29.66 29.66 35.5956 27.3743 43.1187C26.7908 45.0443 28.2616 46.9819 30.2737 46.9819H38.3079C39.4005 42.7404 42.7405 39.4004 46.9819 38.3078Z" fill="white"/>
</svg>
