<svg width="100" height="100" viewBox="0 0 100 100" fill="none" xmlns="http://www.w3.org/2000/svg">
<g clip-path="url(#clip0)">
<path d="M21.9298 10.5263C21.5315 10.5263 21.1438 10.3912 20.8333 10.1421L12.0614 3.12458C11.3052 2.51932 11.1824 1.41405 11.7877 0.657914C12.3929 -0.0982267 13.4982 -0.221034 14.2543 0.384229L23.0263 7.40177C23.6087 7.86668 23.8333 8.64914 23.5859 9.35265C23.3385 10.0562 22.6754 10.5263 21.9298 10.5263Z" fill="white"/>
<path d="M78.0701 10.5263C77.3245 10.5263 76.6613 10.0562 76.414 9.35265C76.1666 8.64914 76.3912 7.86668 76.9736 7.40177L85.7456 0.384229C86.5017 -0.221034 87.607 -0.0982267 88.2122 0.657914C88.8175 1.41405 88.6947 2.51932 87.9385 3.12458L79.1666 10.1421C78.8561 10.3912 78.4684 10.5263 78.0701 10.5263Z" fill="white"/>
<path d="M86.8421 21.0527H76.0527C77.2667 29.4878 74.2474 37.979 67.9825 43.7544C64.2667 47.3492 62.2018 52.3211 62.2807 57.4913V68.4211C62.2702 71.6123 60.1071 74.3948 57.0176 75.193V77.193C57.0176 78.1614 56.2316 78.9474 55.2632 78.9474C54.2948 78.9474 53.5088 78.1614 53.5088 77.193V75.4386H46.4913V77.193C46.4913 78.1614 45.7053 78.9474 44.7369 78.9474C43.7685 78.9474 42.9825 78.1614 42.9825 77.193V75.193C39.893 74.3948 37.7299 71.6123 37.7193 68.4211V57.7895C37.7965 52.4807 35.6983 47.372 31.9123 43.6492C26.0457 38.1158 23.0492 30.1895 23.7895 22.1579C23.8246 21.7895 23.8948 21.4211 23.9474 21.0527H13.1579C10.2544 21.0614 7.90355 23.4123 7.89478 26.3158V73.6842C7.90355 76.5878 10.2544 78.9386 13.1579 78.9474H30.7018C32.3562 78.9579 33.9106 79.7369 34.9123 81.0527L48.7018 99.4386C49.0614 99.7825 49.5439 99.9684 50.0404 99.9544C50.5386 99.9404 51.0088 99.7299 51.3509 99.3684L65.0878 81.0527C66.0895 79.7369 67.6439 78.9579 69.2983 78.9474H86.8421C89.7457 78.9386 92.0965 76.5878 92.1053 73.6842V26.3158C92.0965 23.4123 89.7457 21.0614 86.8421 21.0527ZM13.1579 26.3158H18.4211C19.3895 26.3158 20.1755 27.1018 20.1755 28.0702C20.1755 29.0386 19.3895 29.8246 18.4211 29.8246H13.1579C12.1895 29.8246 11.4035 29.0386 11.4035 28.0702C11.4035 27.1018 12.1895 26.3158 13.1579 26.3158ZM23.0176 54L14.2457 61.0176C13.9404 61.2702 13.5544 61.4071 13.1579 61.4035C12.6246 61.4018 12.1211 61.1562 11.7895 60.7369C11.4948 60.3772 11.3579 59.9123 11.4106 59.4492C11.4632 58.986 11.7018 58.5649 12.0702 58.2807L20.8421 51.2632C21.3246 50.8088 22.0211 50.6632 22.6439 50.8895C23.2667 51.1158 23.7088 51.672 23.7895 52.3299C23.8667 52.9878 23.5685 53.6334 23.0176 54ZM88.2106 60.7369C87.879 61.1562 87.3755 61.4018 86.8421 61.4035C86.4456 61.4071 86.0597 61.2702 85.7544 61.0176L76.9825 54C76.3193 53.3737 76.2457 52.3456 76.8141 51.6334C77.3807 50.9193 78.4 50.7597 79.1579 51.2632L87.9299 58.2807C88.2983 58.5649 88.5369 58.986 88.5895 59.4492C88.6421 59.9123 88.5053 60.3772 88.2106 60.7369ZM86.8421 29.8246H81.579C80.6106 29.8246 79.8246 29.0386 79.8246 28.0702C79.8246 27.1018 80.6106 26.3158 81.579 26.3158H86.8421C87.8106 26.3158 88.5965 27.1018 88.5965 28.0702C88.5965 29.0386 87.8106 29.8246 86.8421 29.8246ZM65.7369 8.05267C59.8492 2.36671 51.3632 0.273724 43.5071 2.56846C35.6509 4.8632 29.6264 11.1965 27.7264 19.1597C25.8264 27.1228 28.3421 35.4913 34.3158 41.0878C38.8088 45.4737 41.3071 51.5106 41.2281 57.7895V59.6492H58.772V57.4913C58.693 51.3509 61.1562 45.4527 65.579 41.193C70.1614 36.9106 72.7772 30.9281 72.8071 24.6562C72.8369 18.3842 70.279 12.3772 65.7369 8.05267ZM43.6492 10.386C43.579 10.4211 37.193 13.1755 35.9299 19.6316C35.7702 20.4562 35.0492 21.0509 34.2106 21.0527C34.0983 21.0492 33.9878 21.0386 33.8772 21.0176C33.4211 20.9316 33.0176 20.6649 32.7562 20.2807C32.4948 19.8965 32.4 19.4211 32.4913 18.965C33.7228 13.7018 37.3632 9.32635 42.3158 7.15793C42.9053 6.84565 43.6211 6.89478 44.1632 7.28425C44.7053 7.67372 44.979 8.33688 44.8702 8.99478C44.7597 9.65267 44.2878 10.1913 43.6492 10.386ZM48.2457 54.386C48.2457 55.3544 47.4597 56.1404 46.4913 56.1404C45.5228 56.1404 44.7369 55.3544 44.7369 54.386V49.1228C44.7369 48.1544 45.5228 47.3685 46.4913 47.3685C47.4597 47.3685 48.2457 48.1544 48.2457 49.1228V54.386ZM48.2457 40.3509C48.2457 41.3193 47.4597 42.1053 46.4913 42.1053C45.5228 42.1053 44.7369 41.3193 44.7369 40.3509V38.5965C44.7369 37.6281 45.5228 36.8421 46.4913 36.8421C47.4597 36.8421 48.2457 37.6281 48.2457 38.5965V40.3509ZM55.2632 54.386C55.2632 55.3544 54.4772 56.1404 53.5088 56.1404C52.5404 56.1404 51.7544 55.3544 51.7544 54.386V49.1228C51.7544 48.1544 52.5404 47.3685 53.5088 47.3685C54.4772 47.3685 55.2632 48.1544 55.2632 49.1228V54.386ZM55.2632 40.3509C55.2632 41.3193 54.4772 42.1053 53.5088 42.1053C52.5404 42.1053 51.7544 41.3193 51.7544 40.3509V38.5965C51.7544 37.6281 52.5404 36.8421 53.5088 36.8421C54.4772 36.8421 55.2632 37.6281 55.2632 38.5965V40.3509Z" fill="white"/>
<path d="M41.2281 63.1579V68.4211C41.2334 70.3561 42.8018 71.9246 44.7369 71.9298H55.2632C57.1983 71.9246 58.7668 70.3561 58.772 68.4211V63.1579H41.2281Z" fill="white"/>
</g>
<defs>
<clipPath id="clip0">
<rect width="100" height="100" fill="white"/>
</clipPath>
</defs>
</svg>
