<svg width="100" height="100" viewBox="0 0 100 100" fill="none" xmlns="http://www.w3.org/2000/svg">
<g clip-path="url(#clip0)">
<path d="M95.856 73.9919L93.3749 73.5159C92.2117 73.2926 91.2959 72.5314 90.8629 71.4266C90.4282 70.3235 90.5829 69.1431 91.2839 68.1878L92.8423 66.0642C93.344 65.3803 93.2718 64.4319 92.6705 63.8322L89.3046 60.468C88.7221 59.8873 87.8063 59.7997 87.1259 60.2601L85.0349 61.6759C84.4662 62.0608 83.815 62.2653 83.1466 62.2653C81.6964 62.2653 80.0762 61.2756 79.7858 59.3856L79.3855 56.7825C79.2566 55.9458 78.535 55.3255 77.6879 55.3255H72.9286C72.1055 55.3255 71.3959 55.9114 71.2413 56.7207L70.6262 59.9251C70.2808 61.7309 68.6846 62.6759 67.2895 62.6759C66.6211 62.6759 65.9682 62.4732 65.4012 62.0883L62.7002 60.2601C62.0181 59.7997 61.104 59.8873 60.5215 60.468L57.1556 63.8322C56.5543 64.4319 56.4821 65.3786 56.9838 66.0642L58.5422 68.1878C59.2432 69.1431 59.3979 70.3235 58.9632 71.4266C58.5302 72.5314 57.6144 73.2926 56.4512 73.5159L53.9701 73.9919C53.1608 74.1482 52.575 74.8561 52.575 75.6791V80.4385C52.575 81.2856 53.1935 82.0072 54.032 82.1361L56.635 82.5364C57.8085 82.7168 58.7518 83.4436 59.226 84.5295C59.7003 85.6171 59.5903 86.8026 58.9254 87.7854L57.5096 89.8765C57.0474 90.5569 57.135 91.4727 57.7175 92.0551L61.0817 95.421C61.6796 96.0207 62.6263 96.0911 63.3136 95.5929L65.4373 94.0345C66.0249 93.6015 66.7122 93.373 67.4235 93.373C68.8204 93.373 70.4166 94.3197 70.7636 96.1255L71.2396 98.6066C71.3959 99.4158 72.1038 100.002 72.9268 100.002H77.6862C78.5333 100.002 79.2549 99.3832 79.3838 98.5447L79.6656 96.7148C79.9559 94.8248 81.5779 93.8352 83.0298 93.8352C83.7394 93.8352 84.4266 94.0654 85.016 94.4984L86.5091 95.5946C87.1963 96.098 88.1431 96.0241 88.741 95.4228L92.1052 92.0568C92.6877 91.4744 92.7753 90.5603 92.3131 89.8782L90.8973 87.7872C90.2324 86.8061 90.1224 85.6188 90.5966 84.5312C91.0691 83.4453 92.0141 82.7185 93.1877 82.5381L95.7907 82.1378C96.6275 82.0089 97.2477 81.2873 97.2477 80.4402V75.6808C97.2494 74.8561 96.6653 74.1482 95.856 73.9919ZM93.8131 78.9643L92.667 79.1413C90.3406 79.4986 88.3905 81.0003 87.4506 83.1566C86.5091 85.3147 86.7359 87.7648 88.0554 89.7115L88.6757 90.6273L87.3561 91.9469L87.052 91.7235C85.8682 90.8558 84.4782 90.3971 83.0315 90.3971C79.6312 90.3971 76.7859 92.8335 76.2704 96.1891L76.2137 96.5636H74.3478L74.1399 95.476C73.523 92.2665 70.6966 89.9349 67.4235 89.9349C65.9751 89.9349 64.5868 90.3954 63.4029 91.2596L62.4682 91.9452L61.1487 90.6256L61.769 89.7098C63.0885 87.7614 63.3136 85.3113 62.3737 83.1549C61.4339 80.9986 59.482 79.4969 57.1573 79.1395L56.013 78.9643V77.0983L57.1006 76.8904C59.4133 76.4454 61.305 74.8716 62.1641 72.6826C63.0232 70.4919 62.7054 68.0521 61.3154 66.1535L60.6298 65.2188L61.9494 63.8992L63.4768 64.9336C64.6143 65.7033 65.9338 66.1123 67.2912 66.1123C70.5643 66.1123 73.3873 63.7841 74.0041 60.5728L74.3512 58.7619H76.2172L76.3941 59.9079C76.9113 63.2635 79.7532 65.6999 83.1535 65.6999C84.5091 65.6999 85.827 65.2927 86.9661 64.5195L87.8819 63.8992L89.2015 65.2188L88.5159 66.1535C87.1242 68.0504 86.808 70.4902 87.6671 72.6826C88.5262 74.8716 90.4197 76.4454 92.7306 76.8904L93.8182 77.0983V78.9643H93.8131Z" fill="white"/>
<path d="M74.9129 69.0727C70.1759 69.0727 66.322 72.9266 66.322 77.6636C66.322 82.4006 70.1759 86.2545 74.9129 86.2545C79.65 86.2545 83.5039 82.4006 83.5039 77.6636C83.5039 72.9266 79.65 69.0727 74.9129 69.0727ZM74.9129 82.8182C72.0711 82.8182 69.7584 80.5055 69.7584 77.6636C69.7584 74.8217 72.0711 72.5091 74.9129 72.5091C77.7548 72.5091 80.0675 74.8217 80.0675 77.6636C80.0675 80.5055 77.7565 82.8182 74.9129 82.8182Z" fill="white"/>
<path d="M47.422 74.0503V71.4215C47.422 70.5984 48.0079 69.8888 48.8172 69.7342L52.7347 68.9816L50.2107 65.5453C49.7089 64.8614 49.7811 63.913 50.3825 63.3133L57.2569 56.4423C54.9889 56.6141 52.6505 56.7516 50.1832 56.8186C48.6883 56.865 47.1935 56.8891 45.7056 56.8891C44.2125 56.8891 42.7125 56.865 41.2142 56.8169C28.6011 56.4715 18.5497 54.6898 11.3127 52.1486C7.91069 51.0043 4.99837 49.6538 2.74927 48.1091V60.3271V61.1862V62.0453V64.2601C7.63922 69.3648 24.0444 74.0726 45.7039 74.0726C46.2863 74.0726 46.8482 74.0571 47.422 74.0503Z" fill="white"/>
<path d="M41.6421 51.4854C42.2022 51.5008 42.7606 51.5163 43.3293 51.5249C44.1128 51.5386 44.9049 51.5455 45.7039 51.5455C46.5028 51.5455 47.2949 51.5386 48.0801 51.5266C48.6471 51.518 49.2072 51.5008 49.7674 51.4871C49.9667 51.4819 50.1694 51.4785 50.367 51.4733C69.7017 50.8565 84.1259 46.4648 88.6584 41.7347V39.5182V38.6591V37.8V25.582C80.2961 31.3259 62.6177 34.3637 45.7039 34.3637C28.7901 34.3637 11.1117 31.3259 2.74927 25.582V37.8V38.6591V39.5182V41.733C7.28184 46.4648 21.706 50.8565 41.0407 51.4716C41.24 51.4768 41.4428 51.4802 41.6421 51.4854Z" fill="white"/>
<path d="M88.6584 19.4258V16.3227V15.4637C88.6584 15.175 88.5622 14.9156 88.4265 14.6767C86.4987 7.28682 71.6742 0 45.7039 0C19.7988 0 4.98978 7.25073 3.00184 14.6217C2.85579 14.8743 2.74927 15.1509 2.74927 15.4637V16.3227V19.4258C7.62375 24.5133 23.9121 29.2091 45.7039 29.2091C67.4956 29.2091 83.7857 24.5133 88.6584 19.4258Z" fill="white"/>
<path d="M50.855 90.5088L53.0938 87.2047L48.8791 86.5569C48.0423 86.4281 47.422 85.7064 47.422 84.8594V79.3612C46.8482 79.3663 46.288 79.3818 45.7039 79.3818C24.4912 79.3818 9.85224 75.4472 2.74927 70.4455V84.5363C2.74927 84.8147 2.82315 85.0776 2.9503 85.3112C4.97947 93.7218 23.1338 100 45.7039 100C49.8962 100 53.934 99.7818 57.7466 99.3763L51.0629 92.6874C50.4821 92.1049 50.3945 91.1909 50.855 90.5088Z" fill="white"/>
</g>
<defs>
<clipPath id="clip0">
<rect width="100" height="100" fill="white"/>
</clipPath>
</defs>
</svg>
