<svg width="100" height="100" viewBox="0 0 100 100" fill="none" xmlns="http://www.w3.org/2000/svg">
<path d="M81.2641 38.2899L62.6023 38.3086C59.5586 38.3086 57.0312 40.7852 57.0312 43.8289V82.775C57.0312 85.8188 59.5578 88.6719 62.6023 88.6719H62.6281L81.2516 88.4656C84.2953 88.4656 86.7781 85.8945 86.7781 82.8508L86.8 43.8758C86.8 40.8219 84.3187 38.2899 81.2641 38.2899ZM70.2961 41.0156H73.5937C74.4562 41.0156 75.1562 41.7156 75.1562 42.5781C75.1562 43.4406 74.4562 44.1406 73.5937 44.1406H70.2961C69.4336 44.1406 68.7336 43.4406 68.7336 42.5781C68.7336 41.7156 69.4328 41.0156 70.2961 41.0156ZM64.6016 41.2024C65.1875 40.6242 66.2266 40.6242 66.8125 41.2024C67.1016 41.4992 67.2656 41.8977 67.2656 42.3117C67.2656 42.718 67.1016 43.1242 66.8125 43.4133C66.5234 43.7024 66.1164 43.8742 65.7031 43.8742C65.2961 43.8742 64.8906 43.7024 64.6016 43.4133C64.3125 43.1242 64.1406 42.718 64.1406 42.3117C64.1414 41.8969 64.3125 41.4906 64.6016 41.2024ZM71.9445 86.7539C70.6516 86.7539 69.5992 85.7016 69.5992 84.4094C69.5992 83.1172 70.6516 82.0649 71.9445 82.0649C73.2375 82.0649 74.2898 83.1164 74.2898 84.4094C74.2898 85.7024 73.2375 86.7539 71.9445 86.7539ZM83.5937 80.0781C83.5937 80.5094 83.2445 80.8594 82.8125 80.8594H60.9375C60.5055 80.8594 60.1562 80.5094 60.1562 80.0781V47.2656C60.1562 46.8344 60.5055 46.4844 60.9375 46.4844H82.8125C83.2445 46.4844 83.5937 46.8344 83.5937 47.2656V80.0781Z" fill="white"/>
<path d="M99.1969 69.1406H94.5312V17.2797C94.5312 13.75 91.6555 11.3281 88.1266 11.3281H11.8734C8.34297 11.3281 5.46875 13.75 5.46875 17.2797V69.1406H0.801563C0.370313 69.1406 0 69.0188 0 69.45V70.1781C0 74.0938 3.20547 77.7344 7.12031 77.7344H58.5938V66.0156H10.1562V18.3594H89.8438V66.0156H85.9375V77.7344H92.8766C96.7938 77.7344 100 74.0938 100 70.1781V69.45C100 69.0188 99.6281 69.1406 99.1969 69.1406ZM51.1008 15.8578C50.8109 16.1477 50.4125 16.3109 49.9992 16.3109C49.5859 16.3109 49.1859 16.1477 48.8977 15.8578C48.6 15.5617 48.4367 15.1625 48.4367 14.7484C48.4367 14.3344 48.6 13.9359 48.8977 13.6469C49.4758 13.0609 50.5227 13.0609 51.1008 13.6469C51.3969 13.9359 51.5617 14.3422 51.5617 14.7484C51.5617 15.1625 51.3969 15.5609 51.1008 15.8578Z" fill="white"/>
</svg>
