<svg width="142" height="90" viewBox="0 0 142 90" fill="none" xmlns="http://www.w3.org/2000/svg">
<g clip-path="url(#clip0)">
<path d="M24.9715 35.0248L20.4349 41.1484H45.1602C46.4105 41.1484 46.3949 41.6161 45.7838 42.4431C45.1633 43.2794 44.125 44.7259 43.4921 45.5777C43.1709 46.0082 42.591 46.7919 44.5116 46.7919H54.6231L57.6195 42.7466C59.4777 40.2408 57.7816 35.0279 51.1373 35.0279L24.9715 35.0248Z" fill="#D80613"/>
<path d="M18.5985 54.9753L27.7122 42.6723H39.0209C40.2712 42.6723 40.2556 43.1431 39.6445 43.9671L37.3372 47.0893C37.0161 47.5198 36.4362 48.3035 38.3568 48.3035H53.5037C52.2472 50.0194 48.1565 54.9753 40.8231 54.9753H18.5985ZM70.7864 48.3004L65.8445 54.9753H52.8084L57.7504 48.3004H70.7864ZM90.7537 46.7888H58.8728L67.5906 35.0248H80.6204L75.6255 41.771H81.4404L86.4416 35.0248H99.4714L90.7537 46.7888ZM89.6343 48.3004L84.6924 54.9753H71.6626L76.6045 48.3004H89.6343ZM0 50.9332H19.2002L18.1526 52.3487H0V50.9332ZM0 48.3004H21.1521L20.1013 49.7159H0V48.3004ZM0 53.566H17.2515L16.207 54.9753H0V53.566ZM142 52.3487H122.868L123.919 50.9332H142V52.3487ZM142 54.9753H120.926L121.967 53.566H142V54.9753ZM125.868 48.3004H142V49.719H124.82L125.868 48.3004ZM117.518 35.0248L108.8 46.7888H94.991L103.715 35.0248H117.518ZM93.8747 48.3004C93.8747 48.3004 92.9238 49.5951 92.4592 50.2146C90.8254 52.4137 92.269 54.9722 97.61 54.9722H118.538L123.48 48.3004H93.8747Z" fill="#D80613"/>
</g>
<defs>
<clipPath id="clip0">
<rect width="142" height="90" fill="white"/>
</clipPath>
</defs>
</svg>
