<svg width="100" height="100" viewBox="0 0 100 100" fill="none" xmlns="http://www.w3.org/2000/svg">
<g clip-path="url(#clip0)">
<path d="M26.1124 30.0614L39.8338 43.7828L43.9758 39.6401L30.2544 25.9186V14.9124L9.57337 0.00154114L0.195312 9.37959L15.1062 30.0614H26.1124Z" fill="white"/>
<path d="M70.185 5.14328C61.2433 14.0903 66.6258 24.6379 66.6747 25.2239L25.421 66.4874C24.8351 66.4424 14.3118 61.021 5.34043 69.9924C0.0822551 75.2536 -1.29638 83.2927 1.90415 90.0012L13.6282 78.2802L21.9138 86.5657L10.1927 98.2868C16.7532 101.424 24.8152 100.239 30.1985 94.8505C39.1448 85.9096 33.7576 75.3589 33.7088 74.773L74.9625 33.5117C75.5484 33.5696 86.1083 38.9438 95.043 30.0014C100.304 24.7432 101.683 16.7041 98.4793 9.99481L86.7583 21.7159L78.4728 13.4311L90.1938 1.707C83.6745 -1.39511 75.6156 -0.278929 70.185 5.14328Z" fill="white"/>
<path d="M52.2432 64.4707L64.6638 52.05L68.8241 56.2103L56.4027 68.631L52.2432 64.4707Z" fill="white"/>
<path d="M87.7694 99.9977L60.5637 72.7921L72.9851 60.3714L100.19 87.5763L87.7694 99.9977Z" fill="white"/>
</g>
<defs>
<clipPath id="clip0">
<rect width="100" height="100" fill="white"/>
</clipPath>
</defs>
</svg>
