<svg width="100" height="100" viewBox="0 0 100 100" fill="none" xmlns="http://www.w3.org/2000/svg">
<path d="M85.8728 94.1188L46.5416 73.2938C45.5166 72.75 44.2666 72.825 43.2978 73.4813L13.2228 94.3063C12.0978 95.0875 11.6103 96.5063 12.0228 97.8125C12.4228 99.1063 13.6353 100 14.9978 100H84.4041C85.8353 100 87.0916 99.025 87.4353 97.625C87.7853 96.2313 87.1353 94.7875 85.8728 94.1188Z" fill="white"/>
<path d="M99.0353 88.1813L89.7853 46.5375C89.5603 45.5187 88.8415 44.6875 87.8728 44.3062C86.8978 43.925 85.804 44.0562 84.954 44.6437L54.8728 65.4687C53.9728 66.0937 53.4665 67.1375 53.5353 68.2187C53.5978 69.3125 54.229 70.2875 55.1915 70.7937L94.5165 91.6188C94.979 91.8625 95.479 91.9875 95.979 91.9875C96.6478 91.9875 97.3165 91.775 97.8728 91.3438C98.8415 90.6063 99.2978 89.375 99.0353 88.1813Z" fill="white"/>
<path d="M77.2728 39.6937C76.8603 38.3875 75.654 37.5 74.2853 37.5H45.7603C40.5728 46.8938 32.8978 55.875 29.7415 59.3875C27.9665 61.3625 25.4228 62.5 22.7665 62.5C20.1103 62.5 17.5665 61.3625 15.7915 59.3875C14.5728 58.0312 12.6853 55.8625 10.5228 53.175L2.96026 87.2125C2.68526 88.4688 3.20401 89.7625 4.26651 90.4813C4.79151 90.8375 5.40401 91.0125 6.01026 91.0125C6.63526 91.0125 7.25401 90.8313 7.79151 90.4563L76.0603 43.1875C77.1915 42.4187 77.6728 41 77.2728 39.6937Z" fill="white"/>
<path d="M22.7666 0C10.7041 0 0.891602 9.8125 0.891602 21.875C0.891602 33.1 18.4416 52.9812 20.4416 55.2125C21.0354 55.8687 21.8791 56.25 22.7666 56.25C23.6541 56.25 24.4979 55.8687 25.0916 55.2125C27.0916 52.9812 44.6416 33.1 44.6416 21.875C44.6416 9.8125 34.8291 0 22.7666 0ZM22.7666 31.25C17.5916 31.25 13.3916 27.05 13.3916 21.875C13.3916 16.7 17.5916 12.5 22.7666 12.5C27.9416 12.5 32.1416 16.7 32.1416 21.875C32.1416 27.05 27.9416 31.25 22.7666 31.25Z" fill="white"/>
</svg>
