<svg width="100" height="100" viewBox="0 0 100 100" fill="none" xmlns="http://www.w3.org/2000/svg">
<path d="M43.8866 26.1523L44.0624 24.0625C44.0819 23.7305 44.2577 23.418 44.5116 23.2031C44.7655 22.9883 45.0975 22.8711 45.4296 22.9102H45.4686L46.035 22.9687C48.1054 23.1836 50.1366 22.2852 51.3476 20.5859C51.6601 20.1562 52.246 20.0586 52.6952 20.3516C54.5311 21.6016 55.8593 23.4375 56.4647 25.5664L56.5624 24.0625C56.6796 22.2461 56.0741 20.5078 54.8241 19.1797C53.5741 17.832 51.8554 17.0898 50.0194 17.0898C48.164 17.0898 46.4647 17.832 45.2147 19.1797C43.9647 20.5078 43.3593 22.2461 43.4765 24.0625L43.6132 26.0938C43.6913 26.1133 43.789 26.1328 43.8866 26.1523Z" fill="white"/>
<path d="M40.5859 39.4531C42.2656 38.8672 43.9844 38.457 45.7422 38.1836V36.6797C43.6328 35.3711 42.168 33.125 41.9336 30.5273C41.0156 30.0586 40.4102 29.1211 40.4102 28.0469C40.4102 27.8125 40.4297 27.5977 40.4883 27.3828C40.6445 26.7383 41.0742 26.1914 41.6406 25.8984L41.5234 24.2188C41.3672 21.8555 42.168 19.5898 43.7891 17.8711C45.3906 16.1523 47.6758 15.1563 50.0391 15.1563C52.4024 15.1563 54.668 16.1523 56.2891 17.8711C57.9102 19.6094 58.7109 21.8555 58.5547 24.2188L58.4375 25.8984C59.0039 26.2109 59.4141 26.7383 59.5703 27.3828C59.6289 27.5977 59.6484 27.832 59.6484 28.0469C59.6484 29.1211 59.043 30.0586 58.125 30.5273C57.8906 33.125 56.4258 35.3711 54.3359 36.6797V38.1836C56.0742 38.4375 57.8125 38.8672 59.4727 39.4531L60.2539 39.7266C61.8945 40.293 63.2227 41.5039 63.9063 43.0273C63.9453 43.1055 63.9649 43.1641 63.9844 43.2422C64.2774 43.9844 64.4141 44.7461 64.3945 45.5273V48.3984C68.3008 44.6289 70.7227 39.3555 70.7227 33.5156C70.7227 22.1094 61.4453 12.8125 50.0391 12.8125C38.6328 12.8125 29.3555 22.0898 29.3555 33.5156C29.3555 39.3555 31.7773 44.6289 35.6836 48.3984V45.5078C35.6836 44.7266 35.8203 43.9648 36.0938 43.2422C36.1328 43.1641 36.1523 43.0859 36.1914 43.0273C36.875 41.5039 38.2031 40.293 39.8438 39.7266L40.5859 39.4531Z" fill="white"/>
<path d="M54.3359 40.1758C54.2383 40.1562 54.1602 40.1562 54.0625 40.1367C53.8672 40.7031 53.5352 41.2305 53.0859 41.6602L51.6992 42.9883L53.8281 43.9453L54.3359 40.1758Z" fill="white"/>
<path d="M62.0703 43.8086C61.6211 42.7734 60.7031 41.9531 59.5703 41.5625L58.7891 41.2891C57.9688 40.9961 57.1094 40.7617 56.2695 40.5469L55.625 45.4883C55.5859 45.8008 55.4102 46.0742 55.1367 46.2109C54.9805 46.2891 54.8242 46.3281 54.668 46.3281C54.5313 46.3281 54.3945 46.3086 54.2578 46.25L52.9883 45.6641L52.6172 46.875L53.3008 53.9062C54.9219 53.6523 56.4648 53.2031 57.9297 52.5977V49.6094C57.9297 49.0625 58.3594 48.6328 58.9063 48.6328C59.4531 48.6328 59.8828 49.0625 59.8828 49.6094V51.6602C60.7617 51.1719 61.6211 50.625 62.4219 50.0195V45.5078C62.4219 44.9609 62.3242 44.4336 62.1289 43.9453C62.1094 43.9062 62.0898 43.8477 62.0703 43.8086Z" fill="white"/>
<path d="M42.4023 27.7539C42.3828 27.7734 42.3828 27.8125 42.3633 27.832C42.3437 27.8906 42.3438 27.9688 42.3438 28.0273C42.3438 28.4375 42.6367 28.7695 43.0273 28.8477C43.4961 28.9258 43.8477 29.2969 43.8477 29.7656C43.8281 33.1641 46.6016 35.9375 50 35.9375C53.418 35.9375 56.1719 33.1641 56.1523 29.7656C56.1523 29.2969 56.5039 28.9258 56.9726 28.8477C57.3633 28.7695 57.6562 28.4375 57.6562 28.0273C57.6562 27.9688 57.6562 27.8906 57.6367 27.832L56.3476 28.4375C56.2109 28.4961 56.0742 28.5352 55.9375 28.5352C55.6836 28.5352 55.4297 28.4375 55.2344 28.2227C55.1172 28.0859 55.0391 27.9297 55 27.7539L54.668 26.3672C54.2969 24.8633 53.4766 23.5156 52.3047 22.5195C50.6836 24.2383 48.3594 25.1562 45.957 24.9414L45.7617 27.3633C45.7422 27.6563 45.6055 27.9102 45.3711 28.0859C45.0195 28.3398 44.7656 28.3789 43.125 28.0078C42.8516 27.9297 42.6367 27.8516 42.4023 27.7539Z" fill="white"/>
<path d="M61.7383 89.7266H96.2109L92.9492 83.7109L61.7383 83.7305V89.7266Z" fill="white"/>
<path d="M70.3516 74.0625L87.6758 74.0234L83.8086 66.9141L68.4375 66.875L70.3516 74.0625Z" fill="white"/>
<path d="M49.082 44.7656L49.3359 45.7812L50.8789 45.8203L51.1719 44.8633L50 44.3359L49.082 44.7656Z" fill="white"/>
<path d="M52.3242 38.9062V37.5586C51.582 37.7734 50.8008 37.8906 50 37.8906C49.1992 37.8906 48.418 37.7734 47.6758 37.5586V38.9062C47.6758 39.4141 47.8906 39.9023 48.2422 40.2344L49.9805 41.9141L51.7383 40.2344C52.1094 39.9023 52.3242 39.4141 52.3242 38.9062Z" fill="white"/>
<path d="M45.9375 40.1367C45.8398 40.1562 45.7617 40.1562 45.6641 40.1758L46.1523 43.9453L48.2812 42.9883L46.8945 41.6602C46.4648 41.2305 46.1328 40.7031 45.9375 40.1367Z" fill="white"/>
<path d="M45.7617 46.2695C45.625 46.3281 45.4883 46.3477 45.3516 46.3477C45.1953 46.3477 45.0195 46.3086 44.8828 46.2305C44.6094 46.0742 44.4336 45.8203 44.3945 45.5078L43.75 40.5664C42.8906 40.7617 42.0508 41.0156 41.2305 41.3086L40.4492 41.582C39.3164 41.9727 38.3984 42.793 37.9492 43.8281C37.9297 43.8672 37.9102 43.9258 37.8906 43.9648C37.6953 44.4531 37.5977 44.9805 37.6172 45.5078V50.0586C38.4375 50.6836 39.2969 51.2305 40.2149 51.7187V49.6484C40.2149 49.1016 40.6445 48.6719 41.1914 48.6719C41.7383 48.6719 42.168 49.1016 42.168 49.6484V52.6563C43.6133 53.2617 45.1367 53.6914 46.7188 53.9453L47.5977 46.8359L47.3047 45.6055L45.7617 46.2695Z" fill="white"/>
<path d="M41.0352 79.2578L10.0586 79.2773L3.86719 89.7266H40.0195L41.0352 79.2578Z" fill="white"/>
<path d="M3.125 91.6797H96.875V94.3359H3.125V91.6797Z" fill="white"/>
<path d="M42.1094 77.3047C42.3828 77.3047 42.6562 77.4219 42.832 77.6172C43.0078 77.8125 43.1055 78.0859 43.0859 78.3594L41.9727 89.707H59.7656L59.7852 82.7344C59.7852 82.1875 60.2148 81.7578 60.7617 81.7578L91.875 81.7383L88.7305 75.9766L69.6094 76.0156C69.1602 76.0156 68.7891 75.7227 68.6719 75.293L66.4062 66.875L60.7422 66.8555C55.1953 71.7383 50.5859 74.707 50.5273 74.7461C50.3711 74.8438 50.1758 74.9023 50 74.9023C49.8242 74.9023 49.6289 74.8438 49.4727 74.7461C49.4141 74.707 44.8242 71.7578 39.3164 66.9141H17.4219L11.2305 77.3242L42.1094 77.3047ZM20.1172 71.582H19.0234C18.4766 71.582 18.0469 71.1523 18.0469 70.6055C18.0469 70.0586 18.4766 69.6289 19.0234 69.6289H20.1172C20.6641 69.6289 21.0938 70.0586 21.0938 70.6055C21.0938 71.1523 20.6641 71.582 20.1172 71.582ZM36.0547 71.582H24.2188C23.6719 71.582 23.2422 71.1523 23.2422 70.6055C23.2422 70.0586 23.6719 69.6289 24.2188 69.6289H36.0547C36.6016 69.6289 37.0313 70.0586 37.0313 70.6055C37.0313 71.1523 36.6016 71.582 36.0547 71.582Z" fill="white"/>
<path d="M50 72.7539C51.8164 71.543 58.0078 67.1875 64.1406 60.9961C70.7617 54.3164 78.6328 44.0234 78.6328 33.0078C78.6328 17.9297 65.7812 5.66406 50 5.66406C34.2188 5.66406 21.3672 17.9297 21.3672 33.0078C21.3672 44.0234 29.2578 54.3164 35.8789 61.0156C42.0117 67.207 48.1836 71.5234 50 72.7539ZM27.3633 33.4961C27.3633 20.9961 37.5195 10.8398 50 10.8398C62.4805 10.8398 72.6367 20.9961 72.6367 33.4961C72.6367 45.9961 62.4805 56.1523 50 56.1523C37.5195 56.1523 27.3633 45.9766 27.3633 33.4961Z" fill="white"/>
<path d="M51.3281 54.1406L50.7031 47.7539L49.4141 47.7344L48.6133 54.1406C49.0625 54.1797 49.5117 54.1797 49.9805 54.1797C50.4492 54.1992 50.8984 54.1797 51.3281 54.1406Z" fill="white"/>
</svg>
