<svg width="100" height="100" viewBox="0 0 100 100" fill="none" xmlns="http://www.w3.org/2000/svg">
<path d="M65.625 6.25H58.8375C57.55 2.6125 54.075 0 50 0C45.925 0 42.45 2.6125 41.1562 6.25H34.375C32.65 6.25 31.25 7.65 31.25 9.375V21.875C31.25 23.6 32.65 25 34.375 25H65.625C67.35 25 68.75 23.6 68.75 21.875V9.375C68.75 7.65 67.35 6.25 65.625 6.25Z" fill="white"/>
<path d="M81.25 12.5H75V21.875C75 27.0437 70.7938 31.25 65.625 31.25H34.375C29.2062 31.25 25 27.0437 25 21.875V12.5H18.75C15.3063 12.5 12.5 15.3063 12.5 18.75V93.75C12.5 97.2562 15.2438 100 18.75 100H81.25C84.7562 100 87.5 97.2562 87.5 93.75V18.75C87.5 15.2438 84.7562 12.5 81.25 12.5ZM49.0875 67.8375L36.5875 80.3375C35.975 80.9437 35.175 81.25 34.375 81.25C33.575 81.25 32.775 80.9437 32.1625 80.3375L25.9125 74.0875C24.6937 72.8688 24.6937 70.8875 25.9125 69.6688C27.1312 68.45 29.1125 68.45 30.3313 69.6688L34.375 73.7063L44.6625 63.4188C45.8812 62.2 47.8625 62.2 49.0812 63.4188C50.3 64.6375 50.3063 66.6125 49.0875 67.8375ZM49.0875 42.8375L36.5875 55.3375C35.975 55.9438 35.175 56.25 34.375 56.25C33.575 56.25 32.775 55.9438 32.1625 55.3375L25.9125 49.0875C24.6937 47.8688 24.6937 45.8875 25.9125 44.6688C27.1312 43.45 29.1125 43.45 30.3313 44.6688L34.375 48.7063L44.6625 38.4187C45.8812 37.2 47.8625 37.2 49.0812 38.4187C50.3 39.6375 50.3063 41.6125 49.0875 42.8375ZM71.875 75H59.375C57.65 75 56.25 73.6 56.25 71.875C56.25 70.15 57.65 68.75 59.375 68.75H71.875C73.6 68.75 75 70.15 75 71.875C75 73.6 73.6 75 71.875 75ZM71.875 50H59.375C57.65 50 56.25 48.6 56.25 46.875C56.25 45.15 57.65 43.75 59.375 43.75H71.875C73.6 43.75 75 45.15 75 46.875C75 48.6 73.6 50 71.875 50Z" fill="white"/>
</svg>
