<svg width="100" height="100" viewBox="0 0 100 100" fill="none" xmlns="http://www.w3.org/2000/svg">
<g clip-path="url(#clip0)">
<path d="M95.3908 94.1406H92.4609V31.2387C92.4609 30.1662 91.5916 29.2969 90.5191 29.2969H85.1314C84.0589 29.2969 83.1896 30.1662 83.1896 31.2387V94.1406H77.3302V54.8715C77.3302 53.799 76.4609 52.9297 75.3884 52.9297H70.0027C68.9302 52.9297 68.0609 53.799 68.0609 54.8715V94.1406H62.2015V71.2816C62.2015 70.2092 61.3322 69.3398 60.2597 69.3398H54.872C53.7996 69.3398 52.9302 70.2092 52.9302 71.2816V94.1406H47.0709V54.6762C47.0709 53.6037 46.2015 52.7344 45.1291 52.7344H39.7414C38.6689 52.7344 37.7996 53.6037 37.7996 54.6762V94.1406H31.9402V71.2816C31.9402 70.2092 31.0708 69.3398 29.9984 69.3398H24.6126C23.5402 69.3398 22.6708 70.2092 22.6708 71.2816V94.1406H16.8115V86.227C16.8115 85.1545 15.9421 84.2852 14.8697 84.2852H7.53901L7.53882 17.5781C7.53882 15.9602 6.2271 14.6484 4.60913 14.6484C2.99116 14.6484 1.67944 15.9602 1.67944 17.5781V97.0703C1.67944 98.6883 2.99116 100 4.60913 100H95.3908C97.0087 100 98.3205 98.6883 98.3205 97.0703C98.3205 95.4523 97.0087 94.1406 95.3908 94.1406Z" fill="white"/>
<path d="M18.2972 42.9346L36.1329 25.0988L53.1921 38.6701C54.3581 39.5979 56.0347 39.5025 57.0876 38.449L85.5341 10.0025V12.5123C85.5341 14.1303 86.8458 15.442 88.4638 15.442C90.0817 15.442 91.3935 14.1303 91.3935 12.5123V2.92969C91.3935 1.31484 90.0788 0 88.4638 0H78.8812C77.2632 0 75.9515 1.31172 75.9515 2.92969C75.9515 4.54766 77.2632 5.85938 78.8812 5.85938H81.3909L54.7937 32.4566L37.7345 18.8852C36.5685 17.9576 34.8923 18.0529 33.839 19.1062L14.154 38.7914C13.0099 39.9355 13.0099 41.7904 14.154 42.9346C15.2979 44.0785 17.1532 44.0787 18.2972 42.9346Z" fill="white"/>
</g>
<defs>
<clipPath id="clip0">
<rect width="100" height="100" fill="white"/>
</clipPath>
</defs>
</svg>
