<svg width="24" height="24" viewBox="0 0 24 24" fill="none" xmlns="http://www.w3.org/2000/svg">
<path d="M16.9705 0H7.02947L0 7.02942V16.9706L7.02947 24H16.9705L24 16.9706V7.02942L16.9705 0ZM22.5938 16.3881L16.3881 22.5938H7.61194L1.40625 16.3881V7.61194L7.61194 1.40625H16.3881L22.5938 7.61194V16.3881Z" fill="white"/>
<path d="M5.27299 11.4576C4.94955 11.336 4.70697 11.2766 4.51211 11.2289C4.27957 11.172 4.19341 11.1486 4.08138 11.0757C4.01107 11.03 3.97497 10.9194 3.97675 10.8383C3.97839 10.7587 4.05344 10.6055 4.24755 10.533C4.51516 10.4332 4.76852 10.4101 5.59816 11.0261L6.43661 9.89719C5.87289 9.47846 4.92935 8.77758 3.75593 9.21549C3.06171 9.47452 2.58546 10.1147 2.57079 10.8084C2.56104 11.2675 2.75144 11.8885 3.31507 12.2548C3.63288 12.4614 3.90986 12.5293 4.17771 12.5948C4.35264 12.6377 4.53358 12.6819 4.77836 12.774C5.15632 12.916 5.1266 13.0878 5.11535 13.1525C5.08999 13.2989 4.88135 13.5154 4.51394 13.5154C4.12657 13.5154 3.75536 13.361 3.52104 13.1024L2.479 14.0467C2.98291 14.6028 3.72461 14.9217 4.51394 14.9217C5.51182 14.9217 6.3475 14.2786 6.50102 13.3925C6.64661 12.5521 6.1646 11.7926 5.27299 11.4576Z" fill="white"/>
<path d="M7.04663 10.531H8.24138V14.8753H9.64763V10.531H10.8521V9.12476H7.04663V10.531Z" fill="white"/>
<path d="M19.1357 12.9833C19.1357 12.9833 19.6013 12.9829 19.6423 12.9829C20.7192 12.9829 21.5954 12.1176 21.5954 11.0538C21.5954 9.99011 20.7192 9.12476 19.6423 9.12476H17.7295V14.8753H19.1357V12.9833ZM19.6423 10.531C19.9387 10.531 20.1891 10.7704 20.1891 11.0538C20.1891 11.3372 19.9387 11.5767 19.6423 11.5767C19.5205 11.5767 19.3323 11.5774 19.1404 11.5783C19.1394 11.3765 19.1383 10.7426 19.1378 10.531H19.6423Z" fill="white"/>
<path d="M13.9944 9.12476C12.409 9.12476 11.1191 10.4146 11.1191 12C11.1191 13.5854 12.409 14.8753 13.9944 14.8753C15.5798 14.8753 16.8697 13.5854 16.8697 12C16.8697 10.4146 15.5798 9.12476 13.9944 9.12476ZM13.9944 13.469C13.1844 13.469 12.5254 12.81 12.5254 12C12.5254 11.19 13.1844 10.531 13.9944 10.531C14.8044 10.531 15.4635 11.19 15.4635 12C15.4635 12.81 14.8044 13.469 13.9944 13.469Z" fill="white"/>
</svg>
