<svg width="1440" height="1015" viewBox="0 0 1440 1015" fill="none" xmlns="http://www.w3.org/2000/svg">
<path d="M319 -1.66136L1440.5 -1.66152L1440.5 132L794.691 788.612C768.922 814.812 732.323 825.075 698.857 815.487L110.49 646.904C77.1574 637.353 52.0438 609.57 44.6637 574.082L-0.999976 354.5L0.500036 -1.66136L319 -1.66136Z" fill="url(#paint0_linear)"/>
<path d="M902.773 253.308C921.236 222.669 952.911 203.774 986.471 203.38L1191.98 200.967C1220.42 200.633 1247.06 213.654 1264.8 236.569L1296.5 277.5L1073.5 505.5L903.5 677L804.798 537.91C780.892 504.222 779.788 457.393 802.03 420.484L902.773 253.308Z" fill="white" fill-opacity="0.04"/>
<path d="M400.655 193.657C362.342 236.668 304.341 254.562 251.113 239.795L58.6455 186.397C45.4012 182.723 35.2843 172.119 31.9899 158.459L-7.26519 -4.31027L274.186 -4.31028L543.14 -4.31025L543.528 -3.45291C550.193 11.2619 547.322 29.0059 536.268 41.4155L400.655 193.657Z" fill="white" fill-opacity="0.04"/>
<defs>
<linearGradient id="paint0_linear" x1="49.6048" y1="-159.863" x2="1247.99" y2="431.475" gradientUnits="userSpaceOnUse">
<stop offset="0.142711" stop-color="#6663E6"/>
<stop offset="1" stop-color="#4145B8"/>
</linearGradient>
</defs>
</svg>
