<svg width="65" height="65" viewBox="0 0 65 65" fill="none" xmlns="http://www.w3.org/2000/svg">
<g clip-path="url(#clip0_801_2)">
<path d="M7.29011 15.3288L30.1996 2.10024C30.1998 2.10012 30.2 2.09999 30.2002 2.09987C31.5904 1.29835 33.3007 1.29842 34.6912 2.10029L57.6026 15.329C58.9933 16.1324 59.848 17.6136 59.848 19.217V45.674C59.848 47.2768 58.9935 48.7579 57.6021 49.5624L34.6911 62.7899C34.691 62.79 34.6908 62.7901 34.6907 62.7902C34.6907 62.7902 34.6906 62.7902 34.6905 62.7903C33.3 63.592 31.5897 63.5918 30.1996 62.79L7.29053 49.5624L7.29011 15.3288ZM7.29011 15.3288C7.29001 15.3289 7.2899 15.329 7.2898 15.329M7.29011 15.3288L7.2898 15.329M7.2898 15.329C5.89928 16.1325 5.0448 17.6137 5.0448 19.2169V45.674C5.0448 47.2766 5.8989 48.7574 7.28977 49.5619L7.2898 15.329Z" stroke="white" stroke-width="3"/>
</g>
<g clip-path="url(#clip1_801_2)">
<path d="M44.4444 42.842V37.9221C44.4444 36.8649 43.5874 36.0079 42.5303 36.0079H42.0299V18.0463C42.0299 17.8856 41.9493 17.7357 41.8153 17.6471L40.6003 16.844C40.2821 16.6338 39.858 16.8619 39.858 17.2432V23.0119L39.4959 22.0352C39.009 20.7217 37.7561 19.8499 36.3551 19.8499H27.99C26.5809 19.8499 25.3224 20.7318 24.8415 22.0563L24.4946 23.0119V17.2432C24.4946 16.8619 24.0704 16.6338 23.7522 16.844L22.5372 17.647C22.4031 17.7356 22.3225 17.8856 22.3225 18.0462V36.0079H21.8222C20.7651 36.0079 19.9081 36.8649 19.9081 37.9221V42.842H19.0926C18.8284 42.842 18.6141 43.0562 18.6141 43.3205V45.9659C18.6141 46.2302 18.8284 46.4444 19.0926 46.4444H21.157V47.7124C21.157 48.241 21.5855 48.6694 22.1141 48.6694H24.6501C25.1787 48.6694 25.6071 48.241 25.6071 47.7124V46.4444H38.7455V47.7124C38.7455 48.241 39.174 48.6694 39.7025 48.6694H42.2385C42.7671 48.6694 43.1956 48.241 43.1956 47.7124V46.4444H45.2599C45.5242 46.4444 45.7385 46.2302 45.7385 45.9659V43.3206C45.7385 43.0562 45.5242 42.842 45.2599 42.842L44.4444 42.842ZM25.1286 25.6774H39.2239V30.3923H25.1286V25.6774ZM24.8008 41.5029H23.166C22.6666 41.5029 22.2616 41.0979 22.2616 40.5984V40.5756C22.2616 40.0761 22.6666 39.6712 23.166 39.6712H24.8007C25.3002 39.6712 25.7051 40.0761 25.7051 40.5756V40.5984C25.7052 41.0979 25.3003 41.5029 24.8008 41.5029ZM35.4293 41.7695H28.9232C28.3947 41.7695 27.9662 41.341 27.9662 40.8125V34.7486C27.9662 34.2201 28.3947 33.7916 28.9232 33.7916H35.4293C35.9578 33.7916 36.3863 34.2202 36.3863 34.7486V40.8125C36.3863 41.341 35.9578 41.7695 35.4293 41.7695ZM41.1864 41.5029H39.5517C39.0523 41.5029 38.6473 41.0979 38.6473 40.5984V40.5756C38.6473 40.0761 39.0523 39.6712 39.5517 39.6712H41.1864C41.6859 39.6712 42.0909 40.0761 42.0909 40.5756V40.5984C42.0909 41.0979 41.6859 41.5029 41.1864 41.5029ZM35.2838 37.2941H29.0534C28.7918 37.2941 28.5797 37.082 28.5797 36.8203V36.8107C28.5797 36.549 28.7918 36.337 29.0534 36.337H35.2838C35.5454 36.337 35.7575 36.549 35.7575 36.8107V36.8203C35.7575 37.082 35.5454 37.2941 35.2838 37.2941ZM35.2838 35.3799H29.0534C28.7918 35.3799 28.5797 35.1679 28.5797 34.9062V34.8966C28.5797 34.635 28.7918 34.4229 29.0534 34.4229H35.2838C35.5454 34.4229 35.7575 34.635 35.7575 34.8966V34.9062C35.7575 35.1679 35.5454 35.3799 35.2838 35.3799ZM35.2838 41.1223H29.0534C28.7918 41.1223 28.5797 40.9102 28.5797 40.6485V40.6389C28.5797 40.3773 28.7918 40.1652 29.0534 40.1652H35.2838C35.5454 40.1652 35.7575 40.3773 35.7575 40.6389V40.6485C35.7575 40.9102 35.5454 41.1223 35.2838 41.1223ZM35.2838 39.2081H29.0534C28.7918 39.2081 28.5797 38.9961 28.5797 38.7344V38.7249C28.5797 38.4632 28.7918 38.2511 29.0534 38.2511H35.2838C35.5454 38.2511 35.7575 38.4632 35.7575 38.7249V38.7344C35.7575 38.9961 35.5454 39.2081 35.2838 39.2081Z" fill="white"/>
</g>
<defs>
<clipPath id="clip0_801_2">
<rect width="64.8927" height="64.8927" fill="white" transform="translate(0 64.8927) rotate(-90)"/>
</clipPath>
<clipPath id="clip1_801_2">
<rect width="31.9056" height="31.9056" fill="white" transform="translate(16.2231 16.7639)"/>
</clipPath>
</defs>
</svg>
