<svg width="24" height="24" viewBox="0 0 24 24" fill="none" xmlns="http://www.w3.org/2000/svg">
<path d="M5.5 12.25C3.55 12.25 2 13.8 2 15.75C2 17.7 3.55 19.25 5.5 19.25C7.45 19.25 9 17.7 9 15.75C9 13.8 7.45 12.25 5.5 12.25ZM5.5 18.25C4.10001 18.25 2.99999 17.15 2.99999 15.75C2.99999 14.35 4.10001 13.25 5.5 13.25C6.89999 13.25 8.00001 14.35 8.00001 15.75C7.99996 17.15 6.89999 18.25 5.5 18.25Z" fill="white"/>
<path d="M5.50002 18.25C2.44999 18.25 0 20.7 0 23.75H0.999985C0.999985 21.25 3.00001 19.25 5.49997 19.25C7.99993 19.25 9.99995 21.25 9.99995 23.75H10.9999C11 20.7 8.55 18.25 5.50002 18.25Z" fill="white"/>
<path d="M18.5 12.25C16.55 12.25 15 13.8 15 15.75C15 17.7 16.55 19.25 18.5 19.25C20.45 19.25 22 17.7 22 15.75C22 13.8 20.45 12.25 18.5 12.25ZM18.5 18.25C17.1 18.25 16 17.15 16 15.75C16 14.35 17.1 13.25 18.5 13.25C19.9 13.25 21 14.35 21 15.75C21 17.15 19.9 18.25 18.5 18.25Z" fill="white"/>
<path d="M18.5 18.25C15.45 18.25 13 20.7 13 23.75H14C14 21.25 16 19.25 18.5 19.25C20.9999 19.25 23 21.25 23 23.75H23.9999C24 20.7 21.55 18.25 18.5 18.25Z" fill="white"/>
<path d="M12 0.25C10.05 0.25 8.5 1.8 8.5 3.75C8.5 5.7 10.05 7.25 12 7.25C13.95 7.25 15.5 5.7 15.5 3.75C15.5 1.8 13.95 0.25 12 0.25ZM12 6.25001C10.6 6.25001 9.49998 5.14999 9.49998 3.75C9.49998 2.35001 10.6 1.24999 12 1.24999C13.4 1.24999 14.5 2.35001 14.5 3.75C14.5 5.14999 13.4 6.25001 12 6.25001Z" fill="white"/>
<path d="M12 6.25003C8.94999 6.25003 6.5 8.70002 6.5 11.75H7.49999C7.49999 9.25003 9.50001 7.25006 12 7.25006C14.4999 7.25006 16.5 9.25008 16.5 11.75H17.4999C17.5 8.70002 15.05 6.25003 12 6.25003Z" fill="white"/>
</svg>
