<svg width="100" height="100" viewBox="0 0 100 100" fill="none" xmlns="http://www.w3.org/2000/svg">
<g clip-path="url(#clip0)">
<path d="M98.5469 76.9023L57.746 13.1781C56.0547 10.5377 53.1353 8.94077 50.0012 8.94077C46.8669 8.94077 43.9473 10.5377 42.2563 13.1781L1.45235 76.9023C-0.360783 79.7326 -0.48613 83.3276 1.12859 86.277C2.74032 89.2247 5.83478 91.0592 9.19686 91.0592H90.8018C94.1638 91.0592 97.2585 89.2262 98.8702 86.277C100.485 83.3276 100.36 79.7326 98.5469 76.9023ZM44.8787 34.8415C44.8787 32.0393 47.151 29.7687 49.9515 29.7687C52.7524 29.7687 55.0245 32.0393 55.0245 34.8415V56.6077C55.0245 59.4099 52.7524 61.6805 49.9515 61.6805C47.151 61.6805 44.8787 59.4099 44.8787 56.6077V34.8415ZM49.856 80.0534C46.3553 80.0534 43.5149 77.2145 43.5149 73.7123C43.5149 70.2097 46.3553 67.3713 49.856 67.3713C53.3569 67.3713 56.1972 70.2097 56.1972 73.7123C56.197 77.2145 53.3569 80.0534 49.856 80.0534Z" fill="white"/>
</g>
<defs>
<clipPath id="clip0">
<rect width="100" height="100" fill="white"/>
</clipPath>
</defs>
</svg>
